<svg xmlns="http://www.w3.org/2000/svg" xmlns:xlink="http://www.w3.org/1999/xlink" width="500" zoomAndPan="magnify" viewBox="0 0 375 374.999991" height="500" preserveAspectRatio="xMidYMid meet" version="1.0"><defs><g/><clipPath id="7d887433c3"><path d="M 38.269531 163.390625 L 336.542969 163.390625 L 336.542969 211.597656 L 38.269531 211.597656 Z M 38.269531 163.390625 " clip-rule="nonzero"/></clipPath><clipPath id="cd122e16c7"><path d="M 66.394531 211.597656 C 50.960938 211.597656 38.449219 200.804688 38.449219 187.492188 C 38.449219 174.183594 50.960938 163.390625 66.394531 163.390625 L 308.597656 163.390625 C 324.03125 163.390625 336.542969 174.183594 336.542969 187.492188 C 336.542969 200.804688 324.03125 211.597656 308.597656 211.597656 Z M 66.394531 211.597656 " clip-rule="nonzero"/></clipPath><clipPath id="cdbbb30cdc"><path d="M 41.234375 163.390625 L 332.808594 163.390625 L 332.808594 206.664062 L 41.234375 206.664062 Z M 41.234375 163.390625 " clip-rule="nonzero"/></clipPath><clipPath id="0e4a7c6aea"><path d="M 68.535156 206.664062 C 53.53125 206.664062 41.367188 196.976562 41.367188 185.027344 C 41.367188 173.078125 53.53125 163.390625 68.535156 163.390625 L 305.640625 163.390625 C 320.644531 163.390625 332.808594 173.078125 332.808594 185.027344 C 332.808594 196.976562 320.644531 206.664062 305.640625 206.664062 Z M 68.535156 206.664062 " clip-rule="nonzero"/></clipPath></defs><g clip-path="url(#7d887433c3)"><g clip-path="url(#cd122e16c7)"><path fill="#81a7d7" d="M 336.542969 211.597656 L 38.460938 211.597656 L 38.460938 163.390625 L 336.542969 163.390625 Z M 336.542969 211.597656 " fill-opacity="1" fill-rule="nonzero"/></g></g><g clip-path="url(#cdbbb30cdc)"><g clip-path="url(#0e4a7c6aea)"><path fill="#0d47a1" d="M 332.808594 206.664062 L 41.402344 206.664062 L 41.402344 163.390625 L 332.808594 163.390625 Z M 332.808594 206.664062 " fill-opacity="1" fill-rule="nonzero"/></g></g><g fill="#81a7d7" fill-opacity="1"><g transform="translate(48.595376, 192.907691)"><g><path d="M 18.578125 -16.0625 C 18.617188 -16.0625 18.640625 -16.007812 18.640625 -15.90625 C 18.640625 -15.800781 18.617188 -15.75 18.578125 -15.75 C 17.898438 -15.75 17.363281 -15.476562 16.96875 -14.9375 C 16.570312 -14.40625 16.375 -13.6875 16.375 -12.78125 L 16.375 0.390625 C 16.375 0.441406 16.332031 0.472656 16.25 0.484375 C 16.175781 0.503906 16.125 0.5 16.09375 0.46875 L 4.03125 -13.265625 L 4.03125 -3.265625 C 4.03125 -2.359375 4.21875 -1.640625 4.59375 -1.109375 C 4.976562 -0.578125 5.503906 -0.3125 6.171875 -0.3125 C 6.203125 -0.3125 6.21875 -0.257812 6.21875 -0.15625 C 6.21875 -0.0507812 6.203125 0 6.171875 0 C 5.691406 0 5.320312 -0.0078125 5.0625 -0.03125 L 3.671875 -0.046875 L 2.078125 -0.03125 C 1.785156 -0.0078125 1.367188 0 0.828125 0 C 0.773438 0 0.75 -0.0507812 0.75 -0.15625 C 0.75 -0.257812 0.773438 -0.3125 0.828125 -0.3125 C 1.578125 -0.3125 2.171875 -0.578125 2.609375 -1.109375 C 3.046875 -1.640625 3.265625 -2.359375 3.265625 -3.265625 L 3.265625 -14.140625 C 2.703125 -14.753906 2.21875 -15.175781 1.8125 -15.40625 C 1.40625 -15.632812 0.988281 -15.75 0.5625 -15.75 C 0.53125 -15.75 0.515625 -15.800781 0.515625 -15.90625 C 0.515625 -16.007812 0.53125 -16.0625 0.5625 -16.0625 L 1.640625 -16.03125 C 1.867188 -16.019531 2.195312 -16.015625 2.625 -16.015625 L 4.578125 -16.03125 C 4.816406 -16.050781 5.109375 -16.0625 5.453125 -16.0625 C 5.585938 -16.0625 5.6875 -16.023438 5.75 -15.953125 C 5.820312 -15.890625 5.945312 -15.75 6.125 -15.53125 C 6.40625 -15.132812 6.609375 -14.867188 6.734375 -14.734375 L 15.625 -4.46875 L 15.625 -12.78125 C 15.625 -13.695312 15.4375 -14.421875 15.0625 -14.953125 C 14.6875 -15.484375 14.164062 -15.75 13.5 -15.75 C 13.457031 -15.75 13.4375 -15.800781 13.4375 -15.90625 C 13.4375 -16.007812 13.457031 -16.0625 13.5 -16.0625 L 14.59375 -16.03125 C 15.144531 -16 15.609375 -15.984375 15.984375 -15.984375 C 16.328125 -15.984375 16.804688 -16 17.421875 -16.03125 Z M 18.578125 -16.0625 "/></g></g></g><g fill="#81a7d7" fill-opacity="1"><g transform="translate(69.412318, 192.907691)"><g><path d="M 12.75 -4.09375 C 12.75 -4.125 12.785156 -4.140625 12.859375 -4.140625 C 12.898438 -4.140625 12.941406 -4.125 12.984375 -4.09375 C 13.035156 -4.070312 13.0625 -4.050781 13.0625 -4.03125 C 12.882812 -2.695312 12.796875 -1.484375 12.796875 -0.390625 C 12.796875 -0.253906 12.769531 -0.15625 12.71875 -0.09375 C 12.664062 -0.03125 12.566406 0 12.421875 0 L 1.046875 0 C 1.003906 0 0.984375 -0.0507812 0.984375 -0.15625 C 0.984375 -0.257812 1.003906 -0.3125 1.046875 -0.3125 C 1.597656 -0.3125 2 -0.351562 2.25 -0.4375 C 2.5 -0.519531 2.664062 -0.6875 2.75 -0.9375 C 2.832031 -1.1875 2.875 -1.566406 2.875 -2.078125 L 2.875 -13.984375 C 2.875 -14.492188 2.832031 -14.867188 2.75 -15.109375 C 2.664062 -15.347656 2.492188 -15.515625 2.234375 -15.609375 C 1.972656 -15.703125 1.578125 -15.75 1.046875 -15.75 C 1.003906 -15.75 0.984375 -15.800781 0.984375 -15.90625 C 0.984375 -16.007812 1.003906 -16.0625 1.046875 -16.0625 L 11.953125 -16.0625 C 12.117188 -16.0625 12.203125 -15.984375 12.203125 -15.828125 L 12.265625 -12.421875 C 12.265625 -12.378906 12.21875 -12.347656 12.125 -12.328125 C 12.03125 -12.316406 11.972656 -12.335938 11.953125 -12.390625 C 11.679688 -13.378906 11.21875 -14.113281 10.5625 -14.59375 C 9.914062 -15.070312 9.0625 -15.3125 8 -15.3125 L 7.21875 -15.3125 C 6.707031 -15.3125 6.332031 -15.203125 6.09375 -14.984375 C 5.851562 -14.765625 5.734375 -14.421875 5.734375 -13.953125 L 5.734375 -8.71875 L 7.859375 -8.71875 C 8.859375 -8.71875 9.625 -8.882812 10.15625 -9.21875 C 10.6875 -9.5625 10.953125 -10.046875 10.953125 -10.671875 C 10.953125 -10.722656 11 -10.75 11.09375 -10.75 C 11.1875 -10.75 11.234375 -10.722656 11.234375 -10.671875 L 11.203125 -8.359375 L 11.234375 -7.125 C 11.265625 -6.539062 11.28125 -6.078125 11.28125 -5.734375 C 11.28125 -5.703125 11.226562 -5.6875 11.125 -5.6875 C 11.019531 -5.6875 10.96875 -5.703125 10.96875 -5.734375 C 10.96875 -6.429688 10.695312 -6.984375 10.15625 -7.390625 C 9.625 -7.796875 8.851562 -8 7.84375 -8 L 5.734375 -8 L 5.734375 -2.1875 C 5.734375 -1.6875 5.828125 -1.316406 6.015625 -1.078125 C 6.203125 -0.835938 6.503906 -0.71875 6.921875 -0.71875 L 7.765625 -0.71875 C 9.097656 -0.71875 10.164062 -0.988281 10.96875 -1.53125 C 11.78125 -2.082031 12.375 -2.9375 12.75 -4.09375 Z M 12.75 -4.09375 "/></g></g></g><g fill="#81a7d7" fill-opacity="1"><g transform="translate(85.526322, 192.907691)"><g><path d="M 18.203125 -0.3125 C 18.234375 -0.3125 18.25 -0.257812 18.25 -0.15625 C 18.25 -0.0507812 18.234375 0 18.203125 0 L 13.625 0 C 13.25 0 12.546875 -0.679688 11.515625 -2.046875 C 10.484375 -3.410156 9.238281 -5.316406 7.78125 -7.765625 C 7.644531 -7.742188 7.453125 -7.734375 7.203125 -7.734375 C 6.523438 -7.734375 6.050781 -7.742188 5.78125 -7.765625 L 5.78125 -2.078125 C 5.78125 -1.546875 5.820312 -1.160156 5.90625 -0.921875 C 6 -0.679688 6.164062 -0.519531 6.40625 -0.4375 C 6.65625 -0.351562 7.054688 -0.3125 7.609375 -0.3125 C 7.640625 -0.3125 7.65625 -0.257812 7.65625 -0.15625 C 7.65625 -0.0507812 7.640625 0 7.609375 0 C 7.046875 0 6.597656 -0.0078125 6.265625 -0.03125 L 4.3125 -0.046875 L 2.4375 -0.03125 C 2.09375 -0.0078125 1.628906 0 1.046875 0 C 1.003906 0 0.984375 -0.0507812 0.984375 -0.15625 C 0.984375 -0.257812 1.003906 -0.3125 1.046875 -0.3125 C 1.597656 -0.3125 2 -0.351562 2.25 -0.4375 C 2.5 -0.519531 2.671875 -0.6875 2.765625 -0.9375 C 2.859375 -1.1875 2.90625 -1.566406 2.90625 -2.078125 L 2.90625 -13.984375 C 2.90625 -14.492188 2.859375 -14.867188 2.765625 -15.109375 C 2.679688 -15.347656 2.507812 -15.515625 2.25 -15.609375 C 2 -15.703125 1.609375 -15.75 1.078125 -15.75 C 1.046875 -15.75 1.03125 -15.800781 1.03125 -15.90625 C 1.03125 -16.007812 1.046875 -16.0625 1.078125 -16.0625 L 2.4375 -16.03125 C 3.226562 -16 3.851562 -15.984375 4.3125 -15.984375 C 4.894531 -15.984375 5.503906 -16.007812 6.140625 -16.0625 C 6.367188 -16.082031 6.648438 -16.097656 6.984375 -16.109375 C 7.316406 -16.128906 7.6875 -16.140625 8.09375 -16.140625 C 9.65625 -16.140625 10.863281 -15.851562 11.71875 -15.28125 C 12.570312 -14.707031 13 -13.90625 13 -12.875 C 13 -11.9375 12.742188 -11.082031 12.234375 -10.3125 C 11.722656 -9.550781 11.035156 -8.941406 10.171875 -8.484375 C 11.546875 -6.421875 12.695312 -4.804688 13.625 -3.640625 C 14.550781 -2.484375 15.375 -1.640625 16.09375 -1.109375 C 16.8125 -0.578125 17.515625 -0.3125 18.203125 -0.3125 Z M 5.78125 -8.484375 C 6.195312 -8.410156 6.695312 -8.375 7.28125 -8.375 C 8.269531 -8.375 8.984375 -8.648438 9.421875 -9.203125 C 9.859375 -9.765625 10.078125 -10.664062 10.078125 -11.90625 C 10.078125 -13.3125 9.867188 -14.28125 9.453125 -14.8125 C 9.046875 -15.34375 8.457031 -15.609375 7.6875 -15.609375 C 7 -15.609375 6.507812 -15.476562 6.21875 -15.21875 C 5.925781 -14.957031 5.78125 -14.53125 5.78125 -13.9375 Z M 5.78125 -8.484375 "/></g></g></g><g fill="#81a7d7" fill-opacity="1"><g transform="translate(105.3924, 192.907691)"><g><path d="M 21.40625 -0.3125 C 21.445312 -0.3125 21.46875 -0.257812 21.46875 -0.15625 C 21.46875 -0.0507812 21.445312 0 21.40625 0 C 20.820312 0 20.359375 -0.0078125 20.015625 -0.03125 L 18.125 -0.046875 L 16.1875 -0.03125 C 15.863281 -0.0078125 15.421875 0 14.859375 0 C 14.804688 0 14.78125 -0.0507812 14.78125 -0.15625 C 14.78125 -0.257812 14.804688 -0.3125 14.859375 -0.3125 C 15.578125 -0.3125 16.0625 -0.394531 16.3125 -0.5625 C 16.570312 -0.738281 16.703125 -1.097656 16.703125 -1.640625 L 16.6875 -2.078125 L 16.140625 -12.59375 L 10.84375 -0.1875 C 10.8125 -0.113281 10.742188 -0.078125 10.640625 -0.078125 C 10.535156 -0.078125 10.46875 -0.113281 10.4375 -0.1875 L 3.9375 -12.546875 L 3.734375 -3.265625 C 3.710938 -2.335938 3.894531 -1.613281 4.28125 -1.09375 C 4.664062 -0.570312 5.207031 -0.3125 5.90625 -0.3125 C 5.957031 -0.3125 5.984375 -0.257812 5.984375 -0.15625 C 5.984375 -0.0507812 5.957031 0 5.90625 0 C 5.445312 0 5.085938 -0.0078125 4.828125 -0.03125 L 3.421875 -0.046875 L 1.796875 -0.03125 C 1.523438 -0.0078125 1.15625 0 0.6875 0 C 0.632812 0 0.609375 -0.0507812 0.609375 -0.15625 C 0.609375 -0.257812 0.632812 -0.3125 0.6875 -0.3125 C 1.394531 -0.3125 1.953125 -0.578125 2.359375 -1.109375 C 2.773438 -1.640625 2.988281 -2.359375 3 -3.265625 L 3.234375 -13.90625 L 3.21875 -13.9375 C 2.875 -14.5625 2.515625 -15.019531 2.140625 -15.3125 C 1.773438 -15.601562 1.351562 -15.75 0.875 -15.75 C 0.820312 -15.75 0.796875 -15.800781 0.796875 -15.90625 C 0.796875 -16.007812 0.820312 -16.0625 0.875 -16.0625 L 2.078125 -16.03125 C 2.316406 -16.019531 2.625 -16.015625 3 -16.015625 L 4.375 -16.03125 C 4.519531 -16.050781 4.710938 -16.0625 4.953125 -16.0625 C 5.179688 -16.0625 5.351562 -15.984375 5.46875 -15.828125 C 5.59375 -15.679688 5.816406 -15.316406 6.140625 -14.734375 L 11.75 -4.21875 L 16.625 -15.421875 C 16.726562 -15.660156 16.835938 -15.828125 16.953125 -15.921875 C 17.066406 -16.015625 17.21875 -16.0625 17.40625 -16.0625 C 17.550781 -16.0625 17.722656 -16.050781 17.921875 -16.03125 C 18.117188 -16.019531 18.347656 -16.015625 18.609375 -16.015625 L 20.125 -16.03125 C 20.363281 -16.050781 20.707031 -16.0625 21.15625 -16.0625 C 21.207031 -16.0625 21.234375 -16.007812 21.234375 -15.90625 C 21.234375 -15.800781 21.207031 -15.75 21.15625 -15.75 C 20.351562 -15.75 19.769531 -15.585938 19.40625 -15.265625 C 19.039062 -14.941406 18.878906 -14.4375 18.921875 -13.75 L 19.53125 -2.078125 C 19.5625 -1.546875 19.625 -1.160156 19.71875 -0.921875 C 19.820312 -0.679688 19.992188 -0.519531 20.234375 -0.4375 C 20.484375 -0.351562 20.875 -0.3125 21.40625 -0.3125 Z M 21.40625 -0.3125 "/></g></g></g><g fill="#81a7d7" fill-opacity="1"><g transform="translate(129.344642, 192.907691)"><g><path d="M 12.75 -4.09375 C 12.75 -4.125 12.785156 -4.140625 12.859375 -4.140625 C 12.898438 -4.140625 12.941406 -4.125 12.984375 -4.09375 C 13.035156 -4.070312 13.0625 -4.050781 13.0625 -4.03125 C 12.882812 -2.695312 12.796875 -1.484375 12.796875 -0.390625 C 12.796875 -0.253906 12.769531 -0.15625 12.71875 -0.09375 C 12.664062 -0.03125 12.566406 0 12.421875 0 L 1.046875 0 C 1.003906 0 0.984375 -0.0507812 0.984375 -0.15625 C 0.984375 -0.257812 1.003906 -0.3125 1.046875 -0.3125 C 1.597656 -0.3125 2 -0.351562 2.25 -0.4375 C 2.5 -0.519531 2.664062 -0.6875 2.75 -0.9375 C 2.832031 -1.1875 2.875 -1.566406 2.875 -2.078125 L 2.875 -13.984375 C 2.875 -14.492188 2.832031 -14.867188 2.75 -15.109375 C 2.664062 -15.347656 2.492188 -15.515625 2.234375 -15.609375 C 1.972656 -15.703125 1.578125 -15.75 1.046875 -15.75 C 1.003906 -15.75 0.984375 -15.800781 0.984375 -15.90625 C 0.984375 -16.007812 1.003906 -16.0625 1.046875 -16.0625 L 11.953125 -16.0625 C 12.117188 -16.0625 12.203125 -15.984375 12.203125 -15.828125 L 12.265625 -12.421875 C 12.265625 -12.378906 12.21875 -12.347656 12.125 -12.328125 C 12.03125 -12.316406 11.972656 -12.335938 11.953125 -12.390625 C 11.679688 -13.378906 11.21875 -14.113281 10.5625 -14.59375 C 9.914062 -15.070312 9.0625 -15.3125 8 -15.3125 L 7.21875 -15.3125 C 6.707031 -15.3125 6.332031 -15.203125 6.09375 -14.984375 C 5.851562 -14.765625 5.734375 -14.421875 5.734375 -13.953125 L 5.734375 -8.71875 L 7.859375 -8.71875 C 8.859375 -8.71875 9.625 -8.882812 10.15625 -9.21875 C 10.6875 -9.5625 10.953125 -10.046875 10.953125 -10.671875 C 10.953125 -10.722656 11 -10.75 11.09375 -10.75 C 11.1875 -10.75 11.234375 -10.722656 11.234375 -10.671875 L 11.203125 -8.359375 L 11.234375 -7.125 C 11.265625 -6.539062 11.28125 -6.078125 11.28125 -5.734375 C 11.28125 -5.703125 11.226562 -5.6875 11.125 -5.6875 C 11.019531 -5.6875 10.96875 -5.703125 10.96875 -5.734375 C 10.96875 -6.429688 10.695312 -6.984375 10.15625 -7.390625 C 9.625 -7.796875 8.851562 -8 7.84375 -8 L 5.734375 -8 L 5.734375 -2.1875 C 5.734375 -1.6875 5.828125 -1.316406 6.015625 -1.078125 C 6.203125 -0.835938 6.503906 -0.71875 6.921875 -0.71875 L 7.765625 -0.71875 C 9.097656 -0.71875 10.164062 -0.988281 10.96875 -1.53125 C 11.78125 -2.082031 12.375 -2.9375 12.75 -4.09375 Z M 12.75 -4.09375 "/></g></g></g><g fill="#81a7d7" fill-opacity="1"><g transform="translate(145.458643, 192.907691)"><g><path d="M 18.578125 -16.0625 C 18.617188 -16.0625 18.640625 -16.007812 18.640625 -15.90625 C 18.640625 -15.800781 18.617188 -15.75 18.578125 -15.75 C 17.898438 -15.75 17.363281 -15.476562 16.96875 -14.9375 C 16.570312 -14.40625 16.375 -13.6875 16.375 -12.78125 L 16.375 0.390625 C 16.375 0.441406 16.332031 0.472656 16.25 0.484375 C 16.175781 0.503906 16.125 0.5 16.09375 0.46875 L 4.03125 -13.265625 L 4.03125 -3.265625 C 4.03125 -2.359375 4.21875 -1.640625 4.59375 -1.109375 C 4.976562 -0.578125 5.503906 -0.3125 6.171875 -0.3125 C 6.203125 -0.3125 6.21875 -0.257812 6.21875 -0.15625 C 6.21875 -0.0507812 6.203125 0 6.171875 0 C 5.691406 0 5.320312 -0.0078125 5.0625 -0.03125 L 3.671875 -0.046875 L 2.078125 -0.03125 C 1.785156 -0.0078125 1.367188 0 0.828125 0 C 0.773438 0 0.75 -0.0507812 0.75 -0.15625 C 0.75 -0.257812 0.773438 -0.3125 0.828125 -0.3125 C 1.578125 -0.3125 2.171875 -0.578125 2.609375 -1.109375 C 3.046875 -1.640625 3.265625 -2.359375 3.265625 -3.265625 L 3.265625 -14.140625 C 2.703125 -14.753906 2.21875 -15.175781 1.8125 -15.40625 C 1.40625 -15.632812 0.988281 -15.75 0.5625 -15.75 C 0.53125 -15.75 0.515625 -15.800781 0.515625 -15.90625 C 0.515625 -16.007812 0.53125 -16.0625 0.5625 -16.0625 L 1.640625 -16.03125 C 1.867188 -16.019531 2.195312 -16.015625 2.625 -16.015625 L 4.578125 -16.03125 C 4.816406 -16.050781 5.109375 -16.0625 5.453125 -16.0625 C 5.585938 -16.0625 5.6875 -16.023438 5.75 -15.953125 C 5.820312 -15.890625 5.945312 -15.75 6.125 -15.53125 C 6.40625 -15.132812 6.609375 -14.867188 6.734375 -14.734375 L 15.625 -4.46875 L 15.625 -12.78125 C 15.625 -13.695312 15.4375 -14.421875 15.0625 -14.953125 C 14.6875 -15.484375 14.164062 -15.75 13.5 -15.75 C 13.457031 -15.75 13.4375 -15.800781 13.4375 -15.90625 C 13.4375 -16.007812 13.457031 -16.0625 13.5 -16.0625 L 14.59375 -16.03125 C 15.144531 -16 15.609375 -15.984375 15.984375 -15.984375 C 16.328125 -15.984375 16.804688 -16 17.421875 -16.03125 Z M 18.578125 -16.0625 "/></g></g></g><g fill="#81a7d7" fill-opacity="1"><g transform="translate(166.275582, 192.907691)"><g/></g></g><g fill="#81a7d7" fill-opacity="1"><g transform="translate(174.217254, 192.907691)"><g><path d="M 18.421875 -0.3125 C 18.515625 -0.3125 18.5625 -0.257812 18.5625 -0.15625 C 18.5625 -0.0507812 18.515625 0 18.421875 0 C 18.085938 0 17.554688 -0.015625 16.828125 -0.046875 C 16.078125 -0.0859375 15.539062 -0.109375 15.21875 -0.109375 C 14.789062 -0.109375 14.265625 -0.0859375 13.640625 -0.046875 C 13.066406 -0.015625 12.609375 0 12.265625 0 C 12.191406 0 12.15625 -0.0507812 12.15625 -0.15625 C 12.15625 -0.257812 12.191406 -0.3125 12.265625 -0.3125 C 12.703125 -0.3125 13.019531 -0.359375 13.21875 -0.453125 C 13.414062 -0.546875 13.515625 -0.710938 13.515625 -0.953125 C 13.515625 -1.242188 13.34375 -1.734375 13 -2.421875 L 11.265625 -5.890625 L 4.9375 -5.890625 L 3.9375 -3.65625 C 3.707031 -3.15625 3.59375 -2.691406 3.59375 -2.265625 C 3.59375 -1.648438 3.8125 -1.171875 4.25 -0.828125 C 4.6875 -0.484375 5.273438 -0.3125 6.015625 -0.3125 C 6.097656 -0.3125 6.140625 -0.257812 6.140625 -0.15625 C 6.140625 -0.0507812 6.097656 0 6.015625 0 C 5.703125 0 5.253906 -0.015625 4.671875 -0.046875 C 4.023438 -0.0859375 3.460938 -0.109375 2.984375 -0.109375 C 2.515625 -0.109375 1.957031 -0.0859375 1.3125 -0.046875 C 0.726562 -0.015625 0.253906 0 -0.109375 0 C -0.171875 0 -0.203125 -0.0507812 -0.203125 -0.15625 C -0.203125 -0.257812 -0.171875 -0.3125 -0.109375 -0.3125 C 0.367188 -0.3125 0.769531 -0.410156 1.09375 -0.609375 C 1.425781 -0.804688 1.753906 -1.15625 2.078125 -1.65625 C 2.410156 -2.164062 2.796875 -2.914062 3.234375 -3.90625 L 8.8125 -16.171875 C 8.851562 -16.222656 8.929688 -16.25 9.046875 -16.25 C 9.179688 -16.25 9.257812 -16.222656 9.28125 -16.171875 L 15.703125 -3.515625 C 16.304688 -2.304688 16.800781 -1.46875 17.1875 -1 C 17.582031 -0.539062 17.992188 -0.3125 18.421875 -0.3125 Z M 5.265625 -6.609375 L 10.875 -6.609375 L 7.921875 -12.46875 Z M 5.265625 -6.609375 "/></g></g></g><g fill="#81a7d7" fill-opacity="1"><g transform="translate(194.54592, 192.907691)"><g><path d="M 5.46875 -2.1875 C 5.46875 -1.738281 5.503906 -1.414062 5.578125 -1.21875 C 5.648438 -1.019531 5.78125 -0.882812 5.96875 -0.8125 C 6.164062 -0.75 6.488281 -0.71875 6.9375 -0.71875 L 7.8125 -0.71875 C 9.144531 -0.71875 10.300781 -1.070312 11.28125 -1.78125 C 12.257812 -2.5 12.910156 -3.460938 13.234375 -4.671875 C 13.234375 -4.710938 13.269531 -4.734375 13.34375 -4.734375 C 13.375 -4.734375 13.410156 -4.71875 13.453125 -4.6875 C 13.492188 -4.664062 13.515625 -4.644531 13.515625 -4.625 C 13.359375 -2.925781 13.28125 -1.515625 13.28125 -0.390625 C 13.28125 -0.253906 13.25 -0.15625 13.1875 -0.09375 C 13.132812 -0.03125 13.039062 0 12.90625 0 L 0.765625 0 C 0.734375 0 0.71875 -0.0507812 0.71875 -0.15625 C 0.71875 -0.257812 0.734375 -0.3125 0.765625 -0.3125 C 1.316406 -0.3125 1.71875 -0.351562 1.96875 -0.4375 C 2.21875 -0.519531 2.390625 -0.6875 2.484375 -0.9375 C 2.578125 -1.1875 2.625 -1.566406 2.625 -2.078125 L 2.625 -13.984375 C 2.625 -14.492188 2.578125 -14.867188 2.484375 -15.109375 C 2.390625 -15.347656 2.210938 -15.515625 1.953125 -15.609375 C 1.691406 -15.703125 1.296875 -15.75 0.765625 -15.75 C 0.734375 -15.75 0.71875 -15.800781 0.71875 -15.90625 C 0.71875 -16.007812 0.734375 -16.0625 0.765625 -16.0625 L 2.078125 -16.03125 C 2.867188 -16 3.519531 -15.984375 4.03125 -15.984375 C 4.550781 -15.984375 5.203125 -16 5.984375 -16.03125 L 7.296875 -16.0625 C 7.347656 -16.0625 7.375 -16.007812 7.375 -15.90625 C 7.375 -15.800781 7.347656 -15.75 7.296875 -15.75 C 6.765625 -15.75 6.367188 -15.703125 6.109375 -15.609375 C 5.859375 -15.515625 5.6875 -15.34375 5.59375 -15.09375 C 5.507812 -14.851562 5.46875 -14.472656 5.46875 -13.953125 Z M 5.46875 -2.1875 "/></g></g></g><g fill="#81a7d7" fill-opacity="1"><g transform="translate(210.480031, 192.907691)"><g><path d="M 18.203125 -0.3125 C 18.234375 -0.3125 18.25 -0.257812 18.25 -0.15625 C 18.25 -0.0507812 18.234375 0 18.203125 0 L 13.625 0 C 13.25 0 12.546875 -0.679688 11.515625 -2.046875 C 10.484375 -3.410156 9.238281 -5.316406 7.78125 -7.765625 C 7.644531 -7.742188 7.453125 -7.734375 7.203125 -7.734375 C 6.523438 -7.734375 6.050781 -7.742188 5.78125 -7.765625 L 5.78125 -2.078125 C 5.78125 -1.546875 5.820312 -1.160156 5.90625 -0.921875 C 6 -0.679688 6.164062 -0.519531 6.40625 -0.4375 C 6.65625 -0.351562 7.054688 -0.3125 7.609375 -0.3125 C 7.640625 -0.3125 7.65625 -0.257812 7.65625 -0.15625 C 7.65625 -0.0507812 7.640625 0 7.609375 0 C 7.046875 0 6.597656 -0.0078125 6.265625 -0.03125 L 4.3125 -0.046875 L 2.4375 -0.03125 C 2.09375 -0.0078125 1.628906 0 1.046875 0 C 1.003906 0 0.984375 -0.0507812 0.984375 -0.15625 C 0.984375 -0.257812 1.003906 -0.3125 1.046875 -0.3125 C 1.597656 -0.3125 2 -0.351562 2.25 -0.4375 C 2.5 -0.519531 2.671875 -0.6875 2.765625 -0.9375 C 2.859375 -1.1875 2.90625 -1.566406 2.90625 -2.078125 L 2.90625 -13.984375 C 2.90625 -14.492188 2.859375 -14.867188 2.765625 -15.109375 C 2.679688 -15.347656 2.507812 -15.515625 2.25 -15.609375 C 2 -15.703125 1.609375 -15.75 1.078125 -15.75 C 1.046875 -15.75 1.03125 -15.800781 1.03125 -15.90625 C 1.03125 -16.007812 1.046875 -16.0625 1.078125 -16.0625 L 2.4375 -16.03125 C 3.226562 -16 3.851562 -15.984375 4.3125 -15.984375 C 4.894531 -15.984375 5.503906 -16.007812 6.140625 -16.0625 C 6.367188 -16.082031 6.648438 -16.097656 6.984375 -16.109375 C 7.316406 -16.128906 7.6875 -16.140625 8.09375 -16.140625 C 9.65625 -16.140625 10.863281 -15.851562 11.71875 -15.28125 C 12.570312 -14.707031 13 -13.90625 13 -12.875 C 13 -11.9375 12.742188 -11.082031 12.234375 -10.3125 C 11.722656 -9.550781 11.035156 -8.941406 10.171875 -8.484375 C 11.546875 -6.421875 12.695312 -4.804688 13.625 -3.640625 C 14.550781 -2.484375 15.375 -1.640625 16.09375 -1.109375 C 16.8125 -0.578125 17.515625 -0.3125 18.203125 -0.3125 Z M 5.78125 -8.484375 C 6.195312 -8.410156 6.695312 -8.375 7.28125 -8.375 C 8.269531 -8.375 8.984375 -8.648438 9.421875 -9.203125 C 9.859375 -9.765625 10.078125 -10.664062 10.078125 -11.90625 C 10.078125 -13.3125 9.867188 -14.28125 9.453125 -14.8125 C 9.046875 -15.34375 8.457031 -15.609375 7.6875 -15.609375 C 7 -15.609375 6.507812 -15.476562 6.21875 -15.21875 C 5.925781 -14.957031 5.78125 -14.53125 5.78125 -13.9375 Z M 5.78125 -8.484375 "/></g></g></g><g fill="#81a7d7" fill-opacity="1"><g transform="translate(230.346103, 192.907691)"><g><path d="M 18.421875 -0.3125 C 18.515625 -0.3125 18.5625 -0.257812 18.5625 -0.15625 C 18.5625 -0.0507812 18.515625 0 18.421875 0 C 18.085938 0 17.554688 -0.015625 16.828125 -0.046875 C 16.078125 -0.0859375 15.539062 -0.109375 15.21875 -0.109375 C 14.789062 -0.109375 14.265625 -0.0859375 13.640625 -0.046875 C 13.066406 -0.015625 12.609375 0 12.265625 0 C 12.191406 0 12.15625 -0.0507812 12.15625 -0.15625 C 12.15625 -0.257812 12.191406 -0.3125 12.265625 -0.3125 C 12.703125 -0.3125 13.019531 -0.359375 13.21875 -0.453125 C 13.414062 -0.546875 13.515625 -0.710938 13.515625 -0.953125 C 13.515625 -1.242188 13.34375 -1.734375 13 -2.421875 L 11.265625 -5.890625 L 4.9375 -5.890625 L 3.9375 -3.65625 C 3.707031 -3.15625 3.59375 -2.691406 3.59375 -2.265625 C 3.59375 -1.648438 3.8125 -1.171875 4.25 -0.828125 C 4.6875 -0.484375 5.273438 -0.3125 6.015625 -0.3125 C 6.097656 -0.3125 6.140625 -0.257812 6.140625 -0.15625 C 6.140625 -0.0507812 6.097656 0 6.015625 0 C 5.703125 0 5.253906 -0.015625 4.671875 -0.046875 C 4.023438 -0.0859375 3.460938 -0.109375 2.984375 -0.109375 C 2.515625 -0.109375 1.957031 -0.0859375 1.3125 -0.046875 C 0.726562 -0.015625 0.253906 0 -0.109375 0 C -0.171875 0 -0.203125 -0.0507812 -0.203125 -0.15625 C -0.203125 -0.257812 -0.171875 -0.3125 -0.109375 -0.3125 C 0.367188 -0.3125 0.769531 -0.410156 1.09375 -0.609375 C 1.425781 -0.804688 1.753906 -1.15625 2.078125 -1.65625 C 2.410156 -2.164062 2.796875 -2.914062 3.234375 -3.90625 L 8.8125 -16.171875 C 8.851562 -16.222656 8.929688 -16.25 9.046875 -16.25 C 9.179688 -16.25 9.257812 -16.222656 9.28125 -16.171875 L 15.703125 -3.515625 C 16.304688 -2.304688 16.800781 -1.46875 17.1875 -1 C 17.582031 -0.539062 17.992188 -0.3125 18.421875 -0.3125 Z M 5.265625 -6.609375 L 10.875 -6.609375 L 7.921875 -12.46875 Z M 5.265625 -6.609375 "/></g></g></g><g fill="#81a7d7" fill-opacity="1"><g transform="translate(250.674769, 192.907691)"><g><path d="M 16.0625 -16.0625 C 16.09375 -16.0625 16.109375 -16.007812 16.109375 -15.90625 C 16.109375 -15.800781 16.09375 -15.75 16.0625 -15.75 C 15.53125 -15.75 14.878906 -15.421875 14.109375 -14.765625 C 13.335938 -14.109375 12.65625 -13.28125 12.0625 -12.28125 L 9.375 -7.8125 L 9.375 -2.078125 C 9.375 -1.546875 9.414062 -1.160156 9.5 -0.921875 C 9.59375 -0.679688 9.765625 -0.519531 10.015625 -0.4375 C 10.265625 -0.351562 10.660156 -0.3125 11.203125 -0.3125 C 11.253906 -0.3125 11.28125 -0.257812 11.28125 -0.15625 C 11.28125 -0.0507812 11.253906 0 11.203125 0 C 10.640625 0 10.195312 -0.0078125 9.875 -0.03125 L 7.9375 -0.046875 L 6.046875 -0.03125 C 5.703125 -0.0078125 5.238281 0 4.65625 0 C 4.613281 0 4.59375 -0.0507812 4.59375 -0.15625 C 4.59375 -0.257812 4.613281 -0.3125 4.65625 -0.3125 C 5.195312 -0.3125 5.597656 -0.351562 5.859375 -0.4375 C 6.117188 -0.519531 6.296875 -0.6875 6.390625 -0.9375 C 6.484375 -1.1875 6.53125 -1.566406 6.53125 -2.078125 L 6.53125 -7.28125 L 2.78125 -13.109375 C 2.144531 -14.097656 1.613281 -14.785156 1.1875 -15.171875 C 0.769531 -15.554688 0.414062 -15.75 0.125 -15.75 C 0.0703125 -15.75 0.046875 -15.800781 0.046875 -15.90625 C 0.046875 -16.007812 0.0703125 -16.0625 0.125 -16.0625 L 0.921875 -16.03125 C 1.296875 -16 1.5625 -15.984375 1.71875 -15.984375 C 2.320312 -15.984375 3.1875 -16 4.3125 -16.03125 L 6.015625 -16.0625 C 6.046875 -16.0625 6.0625 -16.007812 6.0625 -15.90625 C 6.0625 -15.800781 6.046875 -15.75 6.015625 -15.75 C 5.722656 -15.75 5.492188 -15.679688 5.328125 -15.546875 C 5.171875 -15.410156 5.09375 -15.234375 5.09375 -15.015625 C 5.09375 -14.734375 5.210938 -14.40625 5.453125 -14.03125 L 8.96875 -8.484375 L 11.328125 -12.515625 C 11.796875 -13.285156 12.03125 -13.945312 12.03125 -14.5 C 12.03125 -14.90625 11.90625 -15.210938 11.65625 -15.421875 C 11.40625 -15.640625 11.050781 -15.75 10.59375 -15.75 C 10.539062 -15.75 10.515625 -15.800781 10.515625 -15.90625 C 10.515625 -16.007812 10.539062 -16.0625 10.59375 -16.0625 L 11.953125 -16.03125 C 12.742188 -16 13.445312 -15.984375 14.0625 -15.984375 C 14.351562 -15.984375 14.703125 -16 15.109375 -16.03125 Z M 16.0625 -16.0625 "/></g></g></g><g fill="#81a7d7" fill-opacity="1"><g transform="translate(268.510614, 192.907691)"><g><path d="M 16.0625 -16.0625 C 16.09375 -16.0625 16.109375 -16.007812 16.109375 -15.90625 C 16.109375 -15.800781 16.09375 -15.75 16.0625 -15.75 C 15.53125 -15.75 14.878906 -15.421875 14.109375 -14.765625 C 13.335938 -14.109375 12.65625 -13.28125 12.0625 -12.28125 L 9.375 -7.8125 L 9.375 -2.078125 C 9.375 -1.546875 9.414062 -1.160156 9.5 -0.921875 C 9.59375 -0.679688 9.765625 -0.519531 10.015625 -0.4375 C 10.265625 -0.351562 10.660156 -0.3125 11.203125 -0.3125 C 11.253906 -0.3125 11.28125 -0.257812 11.28125 -0.15625 C 11.28125 -0.0507812 11.253906 0 11.203125 0 C 10.640625 0 10.195312 -0.0078125 9.875 -0.03125 L 7.9375 -0.046875 L 6.046875 -0.03125 C 5.703125 -0.0078125 5.238281 0 4.65625 0 C 4.613281 0 4.59375 -0.0507812 4.59375 -0.15625 C 4.59375 -0.257812 4.613281 -0.3125 4.65625 -0.3125 C 5.195312 -0.3125 5.597656 -0.351562 5.859375 -0.4375 C 6.117188 -0.519531 6.296875 -0.6875 6.390625 -0.9375 C 6.484375 -1.1875 6.53125 -1.566406 6.53125 -2.078125 L 6.53125 -7.28125 L 2.78125 -13.109375 C 2.144531 -14.097656 1.613281 -14.785156 1.1875 -15.171875 C 0.769531 -15.554688 0.414062 -15.75 0.125 -15.75 C 0.0703125 -15.75 0.046875 -15.800781 0.046875 -15.90625 C 0.046875 -16.007812 0.0703125 -16.0625 0.125 -16.0625 L 0.921875 -16.03125 C 1.296875 -16 1.5625 -15.984375 1.71875 -15.984375 C 2.320312 -15.984375 3.1875 -16 4.3125 -16.03125 L 6.015625 -16.0625 C 6.046875 -16.0625 6.0625 -16.007812 6.0625 -15.90625 C 6.0625 -15.800781 6.046875 -15.75 6.015625 -15.75 C 5.722656 -15.75 5.492188 -15.679688 5.328125 -15.546875 C 5.171875 -15.410156 5.09375 -15.234375 5.09375 -15.015625 C 5.09375 -14.734375 5.210938 -14.40625 5.453125 -14.03125 L 8.96875 -8.484375 L 11.328125 -12.515625 C 11.796875 -13.285156 12.03125 -13.945312 12.03125 -14.5 C 12.03125 -14.90625 11.90625 -15.210938 11.65625 -15.421875 C 11.40625 -15.640625 11.050781 -15.75 10.59375 -15.75 C 10.539062 -15.75 10.515625 -15.800781 10.515625 -15.90625 C 10.515625 -16.007812 10.539062 -16.0625 10.59375 -16.0625 L 11.953125 -16.03125 C 12.742188 -16 13.445312 -15.984375 14.0625 -15.984375 C 14.351562 -15.984375 14.703125 -16 15.109375 -16.03125 Z M 16.0625 -16.0625 "/></g></g></g><g fill="#81a7d7" fill-opacity="1"><g transform="translate(286.346458, 192.907691)"><g><path d="M 18.421875 -0.3125 C 18.515625 -0.3125 18.5625 -0.257812 18.5625 -0.15625 C 18.5625 -0.0507812 18.515625 0 18.421875 0 C 18.085938 0 17.554688 -0.015625 16.828125 -0.046875 C 16.078125 -0.0859375 15.539062 -0.109375 15.21875 -0.109375 C 14.789062 -0.109375 14.265625 -0.0859375 13.640625 -0.046875 C 13.066406 -0.015625 12.609375 0 12.265625 0 C 12.191406 0 12.15625 -0.0507812 12.15625 -0.15625 C 12.15625 -0.257812 12.191406 -0.3125 12.265625 -0.3125 C 12.703125 -0.3125 13.019531 -0.359375 13.21875 -0.453125 C 13.414062 -0.546875 13.515625 -0.710938 13.515625 -0.953125 C 13.515625 -1.242188 13.34375 -1.734375 13 -2.421875 L 11.265625 -5.890625 L 4.9375 -5.890625 L 3.9375 -3.65625 C 3.707031 -3.15625 3.59375 -2.691406 3.59375 -2.265625 C 3.59375 -1.648438 3.8125 -1.171875 4.25 -0.828125 C 4.6875 -0.484375 5.273438 -0.3125 6.015625 -0.3125 C 6.097656 -0.3125 6.140625 -0.257812 6.140625 -0.15625 C 6.140625 -0.0507812 6.097656 0 6.015625 0 C 5.703125 0 5.253906 -0.015625 4.671875 -0.046875 C 4.023438 -0.0859375 3.460938 -0.109375 2.984375 -0.109375 C 2.515625 -0.109375 1.957031 -0.0859375 1.3125 -0.046875 C 0.726562 -0.015625 0.253906 0 -0.109375 0 C -0.171875 0 -0.203125 -0.0507812 -0.203125 -0.15625 C -0.203125 -0.257812 -0.171875 -0.3125 -0.109375 -0.3125 C 0.367188 -0.3125 0.769531 -0.410156 1.09375 -0.609375 C 1.425781 -0.804688 1.753906 -1.15625 2.078125 -1.65625 C 2.410156 -2.164062 2.796875 -2.914062 3.234375 -3.90625 L 8.8125 -16.171875 C 8.851562 -16.222656 8.929688 -16.25 9.046875 -16.25 C 9.179688 -16.25 9.257812 -16.222656 9.28125 -16.171875 L 15.703125 -3.515625 C 16.304688 -2.304688 16.800781 -1.46875 17.1875 -1 C 17.582031 -0.539062 17.992188 -0.3125 18.421875 -0.3125 Z M 5.265625 -6.609375 L 10.875 -6.609375 L 7.921875 -12.46875 Z M 5.265625 -6.609375 "/></g></g></g><g fill="#81a7d7" fill-opacity="1"><g transform="translate(306.675124, 192.907691)"><g><path d="M 18.578125 -16.0625 C 18.617188 -16.0625 18.640625 -16.007812 18.640625 -15.90625 C 18.640625 -15.800781 18.617188 -15.75 18.578125 -15.75 C 17.898438 -15.75 17.363281 -15.476562 16.96875 -14.9375 C 16.570312 -14.40625 16.375 -13.6875 16.375 -12.78125 L 16.375 0.390625 C 16.375 0.441406 16.332031 0.472656 16.25 0.484375 C 16.175781 0.503906 16.125 0.5 16.09375 0.46875 L 4.03125 -13.265625 L 4.03125 -3.265625 C 4.03125 -2.359375 4.21875 -1.640625 4.59375 -1.109375 C 4.976562 -0.578125 5.503906 -0.3125 6.171875 -0.3125 C 6.203125 -0.3125 6.21875 -0.257812 6.21875 -0.15625 C 6.21875 -0.0507812 6.203125 0 6.171875 0 C 5.691406 0 5.320312 -0.0078125 5.0625 -0.03125 L 3.671875 -0.046875 L 2.078125 -0.03125 C 1.785156 -0.0078125 1.367188 0 0.828125 0 C 0.773438 0 0.75 -0.0507812 0.75 -0.15625 C 0.75 -0.257812 0.773438 -0.3125 0.828125 -0.3125 C 1.578125 -0.3125 2.171875 -0.578125 2.609375 -1.109375 C 3.046875 -1.640625 3.265625 -2.359375 3.265625 -3.265625 L 3.265625 -14.140625 C 2.703125 -14.753906 2.21875 -15.175781 1.8125 -15.40625 C 1.40625 -15.632812 0.988281 -15.75 0.5625 -15.75 C 0.53125 -15.75 0.515625 -15.800781 0.515625 -15.90625 C 0.515625 -16.007812 0.53125 -16.0625 0.5625 -16.0625 L 1.640625 -16.03125 C 1.867188 -16.019531 2.195312 -16.015625 2.625 -16.015625 L 4.578125 -16.03125 C 4.816406 -16.050781 5.109375 -16.0625 5.453125 -16.0625 C 5.585938 -16.0625 5.6875 -16.023438 5.75 -15.953125 C 5.820312 -15.890625 5.945312 -15.75 6.125 -15.53125 C 6.40625 -15.132812 6.609375 -14.867188 6.734375 -14.734375 L 15.625 -4.46875 L 15.625 -12.78125 C 15.625 -13.695312 15.4375 -14.421875 15.0625 -14.953125 C 14.6875 -15.484375 14.164062 -15.75 13.5 -15.75 C 13.457031 -15.75 13.4375 -15.800781 13.4375 -15.90625 C 13.4375 -16.007812 13.457031 -16.0625 13.5 -16.0625 L 14.59375 -16.03125 C 15.144531 -16 15.609375 -15.984375 15.984375 -15.984375 C 16.328125 -15.984375 16.804688 -16 17.421875 -16.03125 Z M 18.578125 -16.0625 "/></g></g></g></svg>