<svg xmlns="http://www.w3.org/2000/svg" xmlns:xlink="http://www.w3.org/1999/xlink" width="500" zoomAndPan="magnify" viewBox="0 0 375 374.999991" height="500" preserveAspectRatio="xMidYMid meet" version="1.0"><defs><clipPath id="3ee0e1d2ab"><path d="M 37.5 11 L 300 11 L 300 342 L 37.5 342 Z M 37.5 11 " clip-rule="nonzero"/></clipPath><clipPath id="8d6f88552b"><path d="M 75 33 L 337.5 33 L 337.5 364 L 75 364 Z M 75 33 " clip-rule="nonzero"/></clipPath></defs><path fill="#9eb8c9" d="M 298.585938 18.996094 L 298.585938 183.898438 C 298.585938 189.753906 295.0625 196.523438 290.6875 198.992188 L 46.367188 340.058594 C 41.992188 342.597656 38.464844 339.917969 38.464844 334.0625 L 38.464844 169.160156 C 38.464844 163.304688 41.992188 156.53125 46.367188 154.0625 L 290.6875 13 C 294.992188 10.460938 298.585938 13.140625 298.585938 18.996094 Z M 298.585938 18.996094 " fill-opacity="1" fill-rule="nonzero"/><g clip-path="url(#3ee0e1d2ab)"><path fill="#ec7929" d="M 296.191406 11.871094 C 294.496094 10.882812 292.382812 11.027344 290.195312 12.296875 L 45.871094 153.359375 C 41.359375 155.96875 37.621094 163.09375 37.621094 169.160156 L 37.621094 334.0625 C 37.621094 337.449219 38.75 339.988281 40.722656 341.1875 C 41.429688 341.609375 42.273438 341.820312 43.121094 341.820312 C 44.25 341.820312 45.449219 341.46875 46.648438 340.761719 L 290.96875 199.699219 C 295.554688 197.019531 299.292969 189.964844 299.292969 183.898438 L 299.292969 18.996094 C 299.363281 15.609375 298.234375 13 296.191406 11.871094 Z M 290.265625 198.289062 L 45.941406 339.351562 C 44.320312 340.269531 42.769531 340.480469 41.570312 339.773438 C 40.089844 338.929688 39.242188 336.8125 39.242188 334.0625 L 39.242188 175.152344 L 297.742188 25.90625 L 297.742188 183.898438 C 297.742188 189.402344 294.355469 195.890625 290.265625 198.289062 Z M 290.265625 198.289062 " fill-opacity="1" fill-rule="nonzero"/></g><path fill="#9eb8c9" d="M 45.097656 163.65625 C 45.097656 164.644531 45.378906 165.347656 45.941406 165.703125 C 46.507812 165.984375 47.28125 165.914062 48.128906 165.421875 C 50.175781 164.222656 51.9375 161.1875 51.9375 158.859375 C 51.9375 157.875 51.65625 157.167969 51.089844 156.816406 C 50.878906 156.675781 50.667969 156.675781 50.386719 156.675781 C 49.960938 156.675781 49.398438 156.816406 48.90625 157.167969 C 46.859375 158.226562 45.097656 161.257812 45.097656 163.65625 Z M 45.097656 163.65625 " fill-opacity="1" fill-rule="nonzero"/><path fill="#487da0" d="M 56.59375 156.957031 C 56.59375 157.945312 56.875 158.648438 57.4375 159 C 58.003906 159.285156 58.777344 159.214844 59.625 158.71875 C 61.671875 157.519531 63.433594 154.488281 63.433594 152.160156 C 63.433594 151.171875 63.152344 150.46875 62.589844 150.113281 C 62.375 149.972656 62.164062 149.972656 61.882812 149.972656 C 61.460938 149.972656 60.894531 150.113281 60.402344 150.46875 C 58.355469 151.597656 56.59375 154.628906 56.59375 156.957031 Z M 56.59375 156.957031 " fill-opacity="1" fill-rule="nonzero"/><path fill="#1f3753" d="M 68.371094 150.183594 C 68.371094 151.171875 68.652344 151.878906 69.21875 152.230469 C 69.78125 152.511719 70.558594 152.441406 71.40625 151.949219 C 73.449219 150.75 75.214844 147.714844 75.214844 145.390625 C 75.214844 144.402344 74.929688 143.695312 74.367188 143.34375 C 74.15625 143.203125 73.945312 143.203125 73.660156 143.203125 C 73.238281 143.203125 72.675781 143.34375 72.179688 143.695312 C 70.136719 144.753906 68.371094 147.785156 68.371094 150.183594 Z M 68.371094 150.183594 " fill-opacity="1" fill-rule="nonzero"/><path fill="#487da0" d="M 317.5625 29.714844 L 317.5625 194.621094 C 317.5625 200.472656 314.035156 207.246094 309.660156 209.714844 L 65.339844 350.777344 C 60.964844 353.316406 57.4375 350.636719 57.4375 344.78125 L 57.4375 179.878906 C 57.4375 174.023438 60.964844 167.253906 65.339844 164.785156 L 309.660156 23.722656 C 314.035156 21.183594 317.5625 23.863281 317.5625 29.714844 Z M 317.5625 29.714844 " fill-opacity="1" fill-rule="nonzero"/><path fill="#ec7929" d="M 315.234375 22.59375 C 313.539062 21.605469 311.425781 21.746094 309.238281 23.015625 L 64.914062 164.078125 C 60.332031 166.761719 56.59375 173.8125 56.59375 179.878906 L 56.59375 344.78125 C 56.59375 348.167969 57.722656 350.707031 59.695312 351.90625 C 60.402344 352.328125 61.246094 352.542969 62.09375 352.542969 C 63.222656 352.542969 64.421875 352.1875 65.621094 351.484375 L 309.945312 210.417969 C 314.527344 207.738281 318.265625 200.6875 318.265625 194.621094 L 318.265625 29.714844 C 318.40625 26.332031 317.207031 23.792969 315.234375 22.59375 Z M 316.785156 36.628906 L 316.785156 38.460938 L 300.632812 54.613281 L 281.378906 73.871094 L 242.867188 112.378906 L 223.613281 131.636719 L 185.03125 170.214844 L 165.777344 189.472656 L 127.195312 228.050781 L 107.941406 247.308594 L 69.429688 285.816406 L 58.214844 297.03125 L 58.214844 292.589844 L 156.183594 194.621094 L 189.96875 160.765625 L 247.734375 103 L 271.855469 78.949219 L 305.570312 45.234375 L 310.578125 40.15625 Z M 295.765625 112.449219 L 281.308594 126.910156 L 238 170.214844 L 223.542969 184.675781 L 180.234375 227.980469 L 165.777344 242.441406 L 122.46875 285.746094 L 108.011719 300.207031 L 64.703125 343.511719 L 59.273438 348.945312 C 58.707031 348.027344 58.425781 346.828125 58.355469 345.417969 L 317.066406 86.707031 L 317.066406 91.148438 Z M 290.96875 112.449219 L 281.308594 122.113281 L 233.132812 170.285156 L 223.472656 179.949219 L 175.296875 228.121094 L 165.777344 237.644531 L 117.601562 285.816406 L 107.941406 295.480469 L 59.765625 343.652344 L 58.214844 345.207031 C 58.214844 345.066406 58.214844 344.921875 58.214844 344.78125 L 58.214844 340.691406 L 316.644531 82.261719 L 316.644531 86.707031 Z M 286.175781 112.449219 L 58.355469 340.269531 L 58.355469 335.824219 L 60.121094 334.0625 L 98.628906 295.550781 L 117.886719 276.296875 L 156.394531 237.785156 L 175.652344 218.53125 L 214.160156 180.019531 L 233.417969 160.765625 L 271.925781 122.253906 L 291.183594 103 L 316.855469 77.324219 L 316.855469 81.769531 Z M 281.308594 112.449219 L 58.285156 335.472656 L 58.285156 331.027344 L 98.558594 290.753906 L 113.019531 276.296875 L 156.324219 232.988281 L 170.785156 218.53125 L 214.089844 175.222656 L 228.550781 160.765625 L 271.855469 117.457031 L 286.316406 103 L 316.785156 72.53125 L 316.785156 76.972656 Z M 276.511719 112.449219 L 58.214844 330.746094 L 58.214844 326.304688 L 316.644531 67.875 L 316.644531 72.316406 Z M 271.714844 112.449219 L 58.285156 325.878906 L 58.285156 321.4375 L 316.785156 62.9375 L 316.785156 67.378906 Z M 281.308594 97.992188 L 266.847656 112.449219 L 223.542969 155.828125 L 209.082031 170.285156 L 165.777344 213.59375 L 151.316406 228.050781 L 108.011719 271.359375 L 93.550781 285.816406 L 58.285156 321.085938 L 58.285156 316.640625 L 316.855469 58.070312 L 316.855469 62.515625 Z M 281.308594 93.195312 L 262.050781 112.449219 L 223.542969 150.960938 L 204.285156 170.214844 L 165.777344 208.726562 L 146.519531 227.980469 L 107.941406 266.5625 L 88.683594 285.816406 L 58.214844 316.289062 L 58.214844 311.84375 L 214.019531 156.039062 L 223.402344 146.660156 L 223.683594 146.375 L 316.714844 53.34375 L 316.714844 57.789062 Z M 315.023438 54.683594 L 58.285156 311.421875 L 58.285156 306.976562 L 98.558594 266.703125 L 146.734375 218.53125 L 156.394531 208.867188 L 204.570312 160.695312 L 214.230469 151.03125 L 223.472656 141.792969 L 223.824219 141.4375 L 262.335938 102.929688 L 271.996094 93.265625 L 316.925781 48.335938 L 316.925781 52.78125 Z M 310.226562 54.683594 L 165.636719 199.273438 L 136.71875 228.195312 L 107.800781 257.113281 L 78.878906 286.03125 L 58.074219 306.835938 L 58.074219 302.394531 L 83.886719 276.578125 L 98.347656 262.121094 L 141.652344 218.8125 L 156.113281 204.355469 L 199.417969 161.046875 L 213.878906 146.589844 L 223.046875 137.417969 L 223.542969 136.925781 L 257.257812 103.210938 L 271.714844 88.75 L 315.023438 45.445312 L 316.574219 43.894531 L 316.574219 48.335938 Z M 305.429688 54.683594 L 189.898438 170.214844 L 165.847656 194.269531 L 132.132812 227.980469 L 108.082031 252.035156 L 74.367188 285.746094 L 58.214844 301.828125 L 58.214844 297.386719 L 214.019531 141.582031 L 223.046875 132.550781 L 223.683594 131.917969 L 252.601562 103 L 271.855469 83.742188 L 310.367188 45.234375 L 316.714844 38.886719 L 316.714844 43.328125 Z M 295.765625 54.683594 L 281.308594 69.144531 L 238 112.449219 L 223.542969 126.910156 L 180.234375 170.214844 L 165.777344 184.675781 L 122.46875 227.980469 L 108.011719 242.441406 L 64.703125 285.746094 L 58.355469 292.09375 L 58.355469 287.722656 L 299.503906 46.574219 L 310.085938 40.4375 Z M 59.132812 185.378906 L 58.214844 186.296875 L 58.214844 185.945312 Z M 59.90625 184.886719 L 70.488281 178.75 L 58.214844 191.09375 L 58.214844 186.648438 Z M 71.332031 178.328125 L 81.914062 172.191406 L 58.214844 195.890625 L 58.214844 191.445312 Z M 82.761719 171.769531 L 93.339844 165.632812 L 88.753906 170.214844 L 58.285156 200.6875 L 58.285156 196.242188 Z M 94.117188 165.136719 L 104.695312 159 L 58.214844 205.480469 L 58.214844 201.039062 Z M 98.488281 165.632812 L 105.472656 158.648438 L 116.050781 152.511719 L 58.214844 210.347656 L 58.214844 205.90625 Z M 108.152344 160.765625 L 116.898438 152.019531 L 127.476562 145.882812 L 58.214844 215.144531 L 58.214844 210.703125 Z M 98.488281 175.222656 L 112.949219 160.765625 L 128.324219 145.390625 L 138.902344 139.253906 L 58.285156 219.871094 L 58.285156 215.425781 Z M 59.976562 218.601562 L 139.679688 138.898438 L 150.257812 132.765625 L 112.734375 170.285156 L 107.941406 175.082031 L 58.214844 224.808594 L 58.214844 220.363281 Z M 64.773438 218.601562 L 151.035156 132.339844 L 161.613281 126.203125 L 117.53125 170.285156 L 107.871094 179.949219 L 59.695312 228.121094 L 58.144531 229.675781 L 58.144531 225.230469 Z M 69.640625 218.601562 L 162.601562 125.640625 L 173.183594 119.503906 L 165.777344 126.910156 L 122.46875 170.214844 L 108.011719 184.675781 L 64.703125 227.980469 L 58.355469 234.328125 L 58.355469 229.886719 Z M 74.4375 218.601562 L 173.816406 119.222656 L 184.398438 113.085938 L 165.707031 131.777344 L 127.195312 170.214844 L 107.941406 189.472656 L 69.429688 227.980469 L 58.214844 239.195312 L 58.214844 234.753906 Z M 79.234375 218.601562 L 156.253906 141.582031 L 185.242188 112.589844 L 195.824219 106.457031 L 189.828125 112.449219 L 132.0625 170.214844 L 108.011719 194.269531 L 74.296875 227.980469 L 58.285156 243.992188 L 58.285156 239.550781 Z M 84.03125 218.601562 L 98.488281 204.140625 L 141.796875 160.835938 L 156.253906 146.375 L 196.597656 106.03125 L 207.179688 99.894531 L 58.074219 249 L 58.074219 244.558594 Z M 88.894531 218.601562 L 98.558594 208.9375 L 146.734375 160.765625 L 156.394531 151.101562 L 204.570312 102.929688 L 208.164062 99.332031 L 218.746094 93.195312 L 58.355469 253.585938 L 58.355469 249.140625 Z M 93.691406 218.601562 L 219.378906 92.914062 L 229.960938 86.777344 L 223.472656 93.265625 L 204.214844 112.519531 L 165.707031 151.03125 L 146.449219 170.285156 L 107.941406 208.796875 L 88.683594 228.050781 L 58.214844 258.523438 L 58.214844 254.078125 Z M 98.488281 218.601562 L 230.804688 86.285156 L 241.386719 80.148438 L 223.542969 97.992188 L 209.082031 112.449219 L 165.777344 155.828125 L 151.316406 170.285156 L 108.011719 213.59375 L 93.550781 228.050781 L 58.285156 263.316406 L 58.285156 258.804688 Z M 98.488281 223.398438 L 242.234375 79.652344 L 252.8125 73.515625 L 58.285156 268.042969 L 58.285156 263.601562 Z M 108.152344 218.601562 L 253.589844 73.164062 L 264.167969 67.027344 L 103.144531 228.050781 L 58.214844 272.910156 L 58.214844 268.46875 Z M 98.488281 232.988281 L 112.949219 218.53125 L 156.253906 175.222656 L 170.714844 160.765625 L 214.019531 117.457031 L 228.480469 103 L 265.015625 66.464844 L 275.59375 60.328125 L 58.285156 277.636719 L 58.285156 273.191406 Z M 59.976562 276.367188 L 271.785156 64.558594 L 276.371094 59.976562 L 286.949219 53.839844 L 58.285156 282.503906 L 58.285156 278.058594 Z M 64.773438 276.367188 L 287.726562 53.414062 L 298.304688 47.277344 L 290.828125 54.753906 L 281.167969 64.417969 L 232.992188 112.589844 L 223.332031 122.253906 L 175.15625 170.429688 L 165.492188 180.089844 L 117.320312 228.265625 L 107.941406 237.644531 L 59.765625 285.816406 L 58.214844 287.371094 L 58.214844 282.925781 Z M 59.34375 349.226562 L 316.785156 91.785156 L 316.785156 96.226562 L 300.632812 112.378906 L 281.378906 131.636719 L 242.867188 170.144531 L 223.613281 189.402344 L 185.03125 228.050781 L 165.777344 247.308594 L 127.195312 285.816406 L 107.941406 305.074219 L 69.429688 343.582031 L 62.164062 350.847656 C 61.601562 350.847656 61.035156 350.707031 60.613281 350.425781 C 60.121094 350.214844 59.695312 349.789062 59.34375 349.226562 Z M 64.984375 350.074219 C 64.140625 350.566406 63.292969 350.847656 62.515625 350.917969 L 79.234375 334.132812 L 214.019531 199.347656 L 223.046875 190.316406 L 223.683594 189.683594 L 252.601562 160.765625 L 271.855469 141.507812 L 310.367188 103 L 316.714844 96.652344 L 316.714844 101.09375 L 247.59375 170.214844 L 223.542969 194.269531 L 189.828125 227.980469 L 165.777344 252.035156 L 132.0625 285.746094 L 108.011719 309.800781 L 74.296875 343.511719 L 71.757812 346.050781 Z M 316.433594 197.722656 L 299.574219 214.582031 L 288.996094 220.71875 L 291.113281 218.601562 L 316.785156 192.925781 L 316.785156 194.550781 C 316.785156 195.609375 316.644531 196.664062 316.433594 197.722656 Z M 309.238281 209.007812 L 300.351562 214.15625 L 316.292969 198.21875 C 315.304688 202.730469 312.554688 207.105469 309.238281 209.007812 Z M 288.21875 221.140625 L 277.640625 227.277344 L 316.785156 188.132812 L 316.785156 192.574219 Z M 276.792969 227.769531 L 266.214844 233.90625 L 316.785156 183.335938 L 316.785156 187.777344 Z M 271.714844 228.050781 L 265.4375 234.328125 L 254.859375 240.464844 L 316.785156 178.539062 L 316.785156 182.984375 Z M 281.308594 213.59375 L 266.847656 228.050781 L 254.011719 240.890625 L 243.433594 247.027344 L 271.855469 218.601562 L 316.785156 173.671875 L 316.785156 178.117188 Z M 281.308594 208.796875 L 262.050781 228.050781 L 242.585938 247.519531 L 232.003906 253.65625 L 316.785156 168.875 L 316.785156 173.320312 Z M 315.023438 170.214844 L 231.230469 254.007812 L 220.648438 260.144531 L 223.332031 257.464844 L 223.683594 257.113281 L 262.191406 218.601562 L 316.785156 164.007812 L 316.785156 168.453125 Z M 310.226562 170.214844 L 219.734375 260.707031 L 209.152344 266.84375 L 223.1875 252.808594 L 223.683594 252.316406 L 257.398438 218.601562 L 271.855469 204.140625 L 315.164062 160.835938 L 316.714844 159.285156 L 316.714844 163.726562 Z M 305.429688 170.214844 L 281.378906 194.269531 L 247.664062 227.980469 L 223.613281 252.035156 L 208.519531 267.128906 L 197.9375 273.261719 L 223.1875 248.011719 L 223.824219 247.378906 L 252.742188 218.460938 L 271.996094 199.203125 L 310.507812 160.695312 L 316.855469 154.347656 L 316.855469 158.789062 Z M 300.5625 170.214844 L 281.308594 189.472656 L 242.796875 227.980469 L 223.542969 247.238281 L 197.023438 273.828125 L 186.441406 279.964844 L 316.785156 149.621094 L 316.785156 154.0625 Z M 295.765625 170.214844 L 281.308594 184.675781 L 238 227.980469 L 223.542969 242.441406 L 185.667969 280.316406 L 175.085938 286.453125 L 316.925781 144.613281 L 316.925781 149.058594 Z M 290.96875 170.214844 L 281.308594 179.878906 L 233.132812 228.050781 L 223.542969 237.644531 L 175.367188 285.816406 L 174.238281 286.945312 L 163.660156 293.082031 L 316.714844 140.027344 L 316.714844 144.472656 Z M 286.175781 170.214844 L 165.847656 290.542969 L 162.953125 293.433594 L 152.375 299.570312 L 156.394531 295.550781 L 175.652344 276.296875 L 214.160156 237.785156 L 233.417969 218.53125 L 271.925781 180.019531 L 291.183594 160.765625 L 316.855469 135.089844 L 316.855469 139.535156 Z M 281.308594 170.214844 L 151.457031 300.066406 L 140.878906 306.203125 L 156.324219 290.753906 L 170.785156 276.296875 L 214.089844 232.988281 L 228.550781 218.53125 L 271.855469 175.222656 L 286.316406 160.765625 L 316.785156 130.296875 L 316.785156 134.738281 Z M 276.511719 170.214844 L 140.101562 306.625 L 129.523438 312.761719 L 316.785156 125.5 L 316.785156 129.941406 Z M 271.714844 170.214844 L 128.675781 313.253906 L 118.097656 319.390625 L 316.785156 120.703125 L 316.785156 125.144531 Z M 281.308594 155.828125 L 266.847656 170.214844 L 223.542969 213.523438 L 209.082031 227.980469 L 165.777344 271.289062 L 151.316406 285.746094 L 117.320312 319.742188 L 106.742188 325.878906 L 316.855469 115.765625 L 316.855469 120.210938 Z M 281.308594 150.960938 L 262.050781 170.214844 L 223.542969 208.726562 L 204.285156 227.980469 L 165.777344 266.5625 L 146.519531 285.816406 L 108.011719 324.328125 L 105.964844 326.375 L 95.386719 332.511719 L 98.558594 329.335938 L 214.089844 213.804688 L 223.472656 204.425781 L 223.753906 204.140625 L 316.785156 111.109375 L 316.785156 115.554688 Z M 315.023438 112.449219 L 94.539062 332.933594 L 83.960938 339.070312 L 88.894531 334.132812 L 98.558594 324.46875 L 146.734375 276.296875 L 156.394531 266.632812 L 204.570312 218.460938 L 214.230469 208.796875 L 223.472656 199.558594 L 223.824219 199.203125 L 262.335938 160.695312 L 271.996094 151.03125 L 316.925781 106.101562 L 316.925781 110.546875 Z M 310.226562 112.449219 L 165.636719 257.039062 L 136.71875 285.960938 L 107.800781 314.878906 L 82.902344 339.703125 L 72.320312 345.839844 L 223.046875 195.113281 L 223.542969 194.621094 L 257.257812 160.90625 L 271.714844 146.445312 L 315.023438 103.140625 L 316.574219 101.589844 L 316.574219 106.03125 Z M 310.226562 112.449219 " fill-opacity="1" fill-rule="nonzero"/><path fill="#9eb8c9" d="M 64.140625 174.378906 C 64.140625 175.363281 64.421875 176.070312 64.984375 176.421875 C 65.550781 176.707031 66.324219 176.632812 67.171875 176.140625 C 69.21875 174.941406 70.980469 171.910156 70.980469 169.582031 C 70.980469 168.59375 70.699219 167.886719 70.136719 167.535156 C 69.921875 167.394531 69.710938 167.394531 69.429688 167.394531 C 69.007812 167.394531 68.441406 167.535156 67.949219 167.886719 C 65.832031 168.945312 64.140625 171.980469 64.140625 174.378906 Z M 64.140625 174.378906 " fill-opacity="1" fill-rule="nonzero"/><path fill="#487da0" d="M 75.636719 167.746094 C 75.636719 168.734375 75.917969 169.441406 76.484375 169.792969 C 77.046875 170.074219 77.824219 170.003906 78.667969 169.511719 C 80.714844 168.3125 82.476562 165.277344 82.476562 162.953125 C 82.476562 161.964844 82.195312 161.257812 81.632812 160.90625 C 81.421875 160.765625 81.207031 160.765625 80.925781 160.765625 C 80.503906 160.765625 79.9375 160.90625 79.445312 161.257812 C 77.398438 162.316406 75.636719 165.347656 75.636719 167.746094 Z M 75.636719 167.746094 " fill-opacity="1" fill-rule="nonzero"/><path fill="#1f3753" d="M 87.414062 160.90625 C 87.414062 161.894531 87.699219 162.597656 88.261719 162.953125 C 88.824219 163.234375 89.601562 163.164062 90.449219 162.667969 C 92.492188 161.46875 94.257812 158.4375 94.257812 156.109375 C 94.257812 155.121094 93.976562 154.417969 93.410156 154.0625 C 93.199219 153.921875 92.988281 153.921875 92.703125 153.921875 C 92.28125 153.921875 91.71875 154.0625 91.222656 154.417969 C 89.179688 155.546875 87.414062 158.507812 87.414062 160.90625 Z M 87.414062 160.90625 " fill-opacity="1" fill-rule="nonzero"/><path fill="#1f3753" d="M 328.703125 34.9375 L 84.382812 176 C 80.007812 178.539062 76.484375 185.308594 76.484375 191.09375 L 76.484375 355.996094 C 76.484375 361.851562 80.007812 364.53125 84.382812 361.992188 L 328.703125 220.929688 C 333.078125 218.390625 336.605469 211.617188 336.605469 205.835938 L 336.605469 40.929688 C 336.605469 35.078125 333.078125 32.398438 328.703125 34.9375 Z M 328.703125 34.9375 " fill-opacity="1" fill-rule="nonzero"/><g clip-path="url(#8d6f88552b)"><path fill="#ec7929" d="M 334.277344 33.808594 C 332.585938 32.820312 330.46875 32.960938 328.28125 34.230469 L 83.960938 175.292969 C 79.375 177.976562 75.636719 185.027344 75.636719 191.09375 L 75.636719 355.996094 C 75.636719 359.382812 76.765625 361.921875 78.738281 363.121094 C 79.445312 363.542969 80.292969 363.753906 81.136719 363.753906 C 82.265625 363.753906 83.464844 363.402344 84.664062 362.699219 L 328.988281 221.632812 C 333.570312 218.953125 337.308594 211.902344 337.308594 205.835938 L 337.308594 40.929688 C 337.378906 37.546875 336.25 35.007812 334.277344 33.808594 Z M 328.28125 220.222656 L 83.960938 361.289062 C 82.335938 362.203125 80.785156 362.414062 79.585938 361.710938 C 78.105469 360.863281 77.257812 358.746094 77.257812 355.996094 L 77.257812 197.089844 L 335.757812 47.84375 L 335.757812 205.835938 C 335.757812 211.335938 332.441406 217.824219 328.28125 220.222656 Z M 328.28125 220.222656 " fill-opacity="1" fill-rule="nonzero"/></g><path fill="#9eb8c9" d="M 83.113281 185.59375 C 83.113281 186.578125 83.394531 187.285156 83.960938 187.636719 C 84.523438 187.917969 85.300781 187.847656 86.144531 187.355469 C 88.191406 186.15625 89.953125 183.125 89.953125 180.796875 C 89.953125 179.808594 89.671875 179.101562 89.109375 178.75 C 88.894531 178.609375 88.683594 178.609375 88.402344 178.609375 C 87.980469 178.609375 87.414062 178.75 86.921875 179.101562 C 84.875 180.160156 83.113281 183.195312 83.113281 185.59375 Z M 83.113281 185.59375 " fill-opacity="1" fill-rule="nonzero"/><path fill="#487da0" d="M 94.609375 178.960938 C 94.609375 179.949219 94.890625 180.65625 95.457031 181.007812 C 96.019531 181.289062 96.796875 181.21875 97.640625 180.726562 C 99.6875 179.527344 101.449219 176.492188 101.449219 174.164062 C 101.449219 173.179688 101.167969 172.472656 100.605469 172.121094 C 100.394531 171.980469 100.179688 171.980469 99.898438 171.980469 C 99.476562 171.980469 98.910156 172.121094 98.417969 172.472656 C 96.371094 173.53125 94.609375 176.5625 94.609375 178.960938 Z M 94.609375 178.960938 " fill-opacity="1" fill-rule="nonzero"/><path fill="#1f3753" d="M 106.457031 172.121094 C 106.457031 173.109375 106.742188 173.8125 107.304688 174.164062 C 107.871094 174.449219 108.644531 174.378906 109.492188 173.882812 C 111.535156 172.683594 113.300781 169.652344 113.300781 167.324219 C 113.300781 166.335938 113.019531 165.632812 112.453125 165.277344 C 112.242188 165.136719 112.03125 165.136719 111.75 165.136719 C 111.324219 165.136719 110.761719 165.277344 110.265625 165.632812 C 108.222656 166.761719 106.457031 169.722656 106.457031 172.121094 Z M 106.457031 172.121094 " fill-opacity="1" fill-rule="nonzero"/><path fill="#9eb8c9" d="M 221.285156 211.476562 L 118.167969 271.007812 L 118.167969 195.820312 L 221.285156 136.289062 Z M 221.285156 211.476562 " fill-opacity="1" fill-rule="nonzero"/><path fill="#487da0" d="M 294.921875 125.074219 L 231.792969 161.539062 L 231.792969 130.222656 L 294.921875 93.757812 Z M 294.921875 134.878906 L 231.792969 171.34375 L 231.792969 205.480469 L 294.921875 169.015625 Z M 294.921875 134.878906 " fill-opacity="1" fill-rule="nonzero"/><path fill="#ec7929" d="M 222.132812 211.902344 L 222.132812 134.878906 L 117.8125 195.113281 L 117.390625 195.324219 L 117.390625 272.347656 L 221.707031 212.183594 Z M 220.507812 210.984375 L 119.011719 269.59375 L 119.011719 196.3125 L 220.507812 137.699219 Z M 220.507812 210.984375 " fill-opacity="1" fill-rule="nonzero"/><path fill="#ec7929" d="M 231.371094 129.519531 L 230.949219 129.730469 L 230.949219 162.882812 L 295.273438 125.78125 L 295.695312 125.570312 L 295.695312 92.417969 Z M 294.074219 124.652344 L 232.570312 160.128906 L 232.570312 130.71875 L 294.074219 95.242188 Z M 294.074219 124.652344 " fill-opacity="1" fill-rule="nonzero"/><path fill="#ec7929" d="M 230.949219 170.851562 L 230.949219 206.820312 L 295.273438 169.722656 L 295.695312 169.511719 L 295.695312 133.539062 L 231.371094 170.640625 Z M 232.570312 171.769531 L 294.074219 136.289062 L 294.074219 168.523438 L 232.570312 204 Z M 232.570312 171.769531 " fill-opacity="1" fill-rule="nonzero"/><path fill="#ec7929" d="M 118.167969 291.882812 L 240.894531 221 L 240.894531 216.695312 L 118.167969 287.511719 Z M 118.167969 291.882812 " fill-opacity="1" fill-rule="nonzero"/><path fill="#ec7929" d="M 118.167969 314.171875 L 240.894531 243.289062 L 240.894531 238.984375 L 118.167969 309.871094 Z M 118.167969 314.171875 " fill-opacity="1" fill-rule="nonzero"/><path fill="#ec7929" d="M 118.167969 325.316406 L 240.894531 254.5 L 240.894531 250.128906 L 118.167969 321.011719 Z M 118.167969 325.316406 " fill-opacity="1" fill-rule="nonzero"/><path fill="#ec7929" d="M 118.167969 303.027344 L 240.894531 232.144531 L 240.894531 227.839844 L 118.167969 298.726562 Z M 118.167969 303.027344 " fill-opacity="1" fill-rule="nonzero"/></svg>